<svg viewBox="0 0 512 512">
        <path style="fill: #ffef00;" d="M87.9 445.2C71.2 435.6 62 419.4 50.1 406c-3.9-4.5-2.3-11-1.8-16.5 8-79.8 38.6-148.6 99.3-202.6 1.8-1.7 3.8-3.3 5.5-5 9.6-9.5 17.2-14.8 31.6-3.6 17.7 13.7 40.3 12.7 58.9-.1 18-12.3 28.9-31.1 25.4-53.8-3.6-23-16.4-41.9-39.2-48.2-34.1-9.4-67.9 12.5-70.8 46.2-.9 10.9-5.8 15.5-14 18.7-41.9 16.3-76.8 42.1-106.7 75.4C26.4 229.7 17 244.6 5.1 262c-2.9-18.5-2.7-35 .7-50.2 7-31.5 17.2-62 34.8-90 33.6-53.3 79.6-89.6 139.3-109.1 105.2-34.4 212.4 4.2 276.8 87.9 26.6 34.6 42.8 73.9 49.2 117.9 13.5 92.4-16.8 168.6-83.6 230.7-35.8 33.2-79.2 52.3-128.6 60.2-36.8 5.9-71.1 1.9-106.2-6.8-10.3-2.5-10.9-7.9-9.1-15.4 10.2-44.9 28.5-86.5 55-124s61.1-66 102.3-86.8c7.7-3.9 12.6-3.9 19.3 1.2 29.8 22.9 64.1 15.8 82.7-14.7 17.6-28.7 5.5-76.2-34.5-83-35.2-6-60.8 10.6-66.9 45.3-1 6-4.1 9.1-10.4 11.5-43.6 16.5-85.3 36-122.5 65.4-44.1 34.8-79.2 76.5-106.3 125.4-3.2 5.5-6 11.4-9.2 17.7z"></path>
    </svg>