<svg height="512pt" viewBox="-63 0 512 512" width="512pt" xmlns="http://www.w3.org/2000/svg"><path d="m386.578125 203.726562c0-14.804687-19.769531-26.070312-60.4375-34.441406-35.566406-7.320312-82.746094-11.351562-132.851563-11.351562-50.105468 0-97.285156 4.03125-132.851562 11.351562-40.667969 8.371094-60.4375 19.636719-60.4375 34.441406 0 9.746094 8.363281 17.800782 25.5625 24.621094 3.886719 1.539063 8.285156-.359375 9.824219-4.246094 1.539062-3.886718-.359375-8.285156-4.246094-9.824218-15.316406-6.074219-16.003906-10.511719-16.003906-10.550782 0-2.042968 8.207031-11.351562 48.351562-19.617187 34.59375-7.117187 80.691407-11.039063 129.800781-11.039063 49.109376 0 95.207032 3.921876 129.796876 11.039063 40.148437 8.265625 48.355468 17.574219 48.355468 19.617187 0 2.039063-8.207031 11.351563-48.355468 19.613282-34.589844 7.117187-80.6875 11.039062-129.796876 11.039062-52.488281 0-102.5-4.613281-137.207031-12.65625-4.074219-.945312-8.140625 1.59375-9.082031 5.664063-.945312 4.070312 1.589844 8.136719 5.664062 9.082031 6.429688 1.488281 13.363282 2.863281 20.71875 4.117188l-8.707031 127.449218c-.28125 4.171875 2.867188 7.78125 7.035157 8.066406.175781.015626.351562.019532.523437.019532 3.945313 0 7.269531-3.058594 7.542969-7.050782l4.289062-62.796874 14 2.195312c31.394532 4.917969 63.015625 7.375 94.648438 7.375 30.226562 0 60.472656-2.246094 90.503906-6.742188l19.285156-2.882812 11.152344 163.289062c-3.132812 3.035157-14.425781 8.777344-25.59375 12.933594-61.820312 19.179688-127.167969 19.226563-189.011719.136719-11.402343-4.21875-22.929687-10.035156-26.132812-13.097656l4.921875-72.054688c.285156-4.171875-2.863282-7.78125-7.035156-8.066406-4.175782-.292969-7.78125 2.863281-8.066407 7.035156l-5.046875 73.917969c-.011718.171875-.019531.34375-.019531.515625 0 6.636719 5.78125 12.148437 19.953125 19.03125 8.089844 3.929687 16.042969 6.867187 16.378906 6.992187.125.042969.25.089844.378906.128907 32.375 10.011719 65.65625 15.019531 98.949219 15.019531 33.449219 0 66.90625-5.054688 99.414063-15.167969.128906-.039062.257812-.082031.382812-.128906.328125-.121094 8.15625-3.027344 16.113282-6.925781 13.960937-6.835938 19.65625-12.324219 19.65625-18.949219 0-.171875-.007813-.34375-.019532-.515625l-15.6875-229.71875c4.460938-.761719 8.785156-1.570312 12.941406-2.429688 40.675782-8.371093 60.445313-19.632812 60.445313-34.4375zm-85.105469 87.339844-20.492187 3.066406c-59.941407 8.96875-120.691407 8.761719-180.570313-.621093l-15.308594-2.398438 3.292969-48.214843c30.78125 4.269531 67.261719 6.617187 104.894531 6.617187 37.890626 0 74.105469-2.308594 104.894532-6.597656zm0 0"/><path d="m193.289062 224c28.683594 0 55.699219-1.53125 76.078126-4.308594 27.433593-3.742187 37.632812-8.546875 37.632812-17.734375s-10.199219-13.992187-37.636719-17.734375c-20.375-2.777344-47.394531-4.308594-76.074219-4.308594-28.683593 0-55.703124 1.53125-76.078124 4.308594-27.433594 3.742188-37.632813 8.546875-37.632813 17.734375 0 9.183594 10.199219 13.992188 37.632813 17.734375 20.378906 2.777344 47.394531 4.308594 76.078124 4.308594zm0-28.949219c44.753907 0 74.878907 3.566407 89.707032 6.90625-14.828125 3.335938-44.957032 6.90625-89.707032 6.90625s-74.878906-3.570312-89.707031-6.90625c14.828125-3.339843 44.957031-6.90625 89.707031-6.90625zm0 0"/><path d="m161.855469 56.355469c.136719.128906.199219.3125.160156.496093l-2.195313 11.492188c-1.152343 6.03125 1.21875 12.019531 6.183594 15.628906 2.757813 2.003906 5.96875 3.015625 9.195313 3.015625 2.589843 0 5.1875-.648437 7.578125-1.964843l10.25-5.640626c.164062-.089843.359375-.089843.523437 0l10.25 5.640626c5.378907 2.960937 11.804688 2.554687 16.769531-1.050782 4.96875-3.609375 7.335938-9.597656 6.183594-15.628906l-2.195312-11.492188c-.035156-.179687.027344-.367187.164062-.492187l8.53125-8.007813c4.476563-4.199218 6.078125-10.4375 4.179688-16.277343-1.894532-5.835938-6.859375-9.941407-12.949219-10.707031l-11.609375-1.464844c-.183594-.023438-.34375-.136719-.421875-.304688l-4.976563-10.589844c-2.613281-5.554687-8.046874-9.007812-14.1875-9.007812-6.136718 0-11.574218 3.449219-14.1875 9.007812l-4.976562 10.589844c-.082031.167969-.238281.28125-.421875.304688l-11.609375 1.460937c-6.089844.769531-11.054688 4.871094-12.949219 10.710938-1.898437 5.839843-.296875 12.074219 4.179688 16.277343zm1.683593-19.605469c.105469-.324219.292969-.347656.445313-.367188l11.609375-1.460937c5.359375-.675781 9.929688-3.996094 12.226562-8.886719l4.976563-10.585937c.066406-.140625.148437-.3125.492187-.3125s.421876.171875.488282.3125l4.980468 10.585937c2.296876 4.886719 6.867188 8.210938 12.226563 8.882813l11.609375 1.464843c.152344.015626.339844.042969.445312.367188.105469.328125-.03125.457031-.144531.5625l-8.53125 8.007812c-3.9375 3.695313-5.683593 9.070313-4.671875 14.375l2.199219 11.488282c.027344.152344.0625.339844-.214844.542968-.277343.199219-.445312.109376-.578125.035157l-10.25-5.640625c-4.734375-2.605469-10.386718-2.605469-15.117187 0l-10.25 5.640625c-.132813.074219-.300781.164062-.578125-.035157-.277344-.203124-.242188-.390624-.210938-.542968l2.195313-11.488282c1.011719-5.308593-.734375-10.679687-4.671875-14.375l-8.53125-8.007812c-.113282-.105469-.253906-.234375-.144532-.5625zm0 0"/><path d="m264.558594 115.988281-1.828125 9.5625c-1.066407 5.59375 1.128906 11.144531 5.738281 14.496094 4.605469 3.34375 10.566406 3.71875 15.558594.972656l8.527344-4.691406 8.53125 4.691406c2.21875 1.222657 4.628906 1.824219 7.027343 1.824219 2.996094 0 5.96875-.941406 8.53125-2.800781 4.605469-3.347657 6.804688-8.898438 5.734375-14.496094l-1.828125-9.5625 7.097657-6.660156c4.15625-3.898438 5.640624-9.679688 3.882812-15.097657-1.761719-5.417968-6.363281-9.222656-12.015625-9.9375l-9.65625-1.214843-4.144531-8.8125c-2.421875-5.152344-7.464844-8.351563-13.160156-8.351563-5.695313 0-10.738282 3.199219-13.160157 8.351563l-4.140625 8.8125-9.660156 1.214843c-5.652344.714844-10.253906 4.519532-12.011719 9.9375-1.761719 5.414063-.273437 11.199219 3.878907 15.097657zm12.910156-17.9375c4.972656-.625 9.210938-3.707031 11.339844-8.238281l3.746094-7.964844 3.742187 7.960938c2.132813 4.535156 6.371094 7.617187 11.34375 8.242187l8.730469 1.101563-6.417969 6.023437c-3.652344 3.425781-5.273437 8.410157-4.332031 13.332031l1.652344 8.644532-7.710938-4.242188c-2.191406-1.210937-4.601562-1.8125-7.007812-1.8125-2.410157 0-4.816407.605469-7.011719 1.8125l-7.710938 4.242188 1.652344-8.644532c.941406-4.917968-.679687-9.90625-4.332031-13.332031l-6.417969-6.023437zm0 0"/><path d="m72.160156 115.988281-1.828125 9.5625c-1.066406 5.59375 1.128907 11.148438 5.734375 14.496094 2.558594 1.855469 5.535156 2.800781 8.53125 2.800781 2.398438 0 4.8125-.605468 7.027344-1.824218l8.53125-4.695313 8.53125 4.695313c4.988281 2.742187 10.949219 2.371093 15.554688-.976563 4.609374-3.347656 6.808593-8.902344 5.738281-14.496094l-1.828125-9.5625 7.097656-6.664062c4.152344-3.894531 5.640625-9.679688 3.878906-15.097657-1.757812-5.414062-6.359375-9.222656-12.011718-9.933593l-9.660157-1.214844-4.140625-8.8125c-2.421875-5.152344-7.464844-8.355469-13.160156-8.355469s-10.738281 3.203125-13.160156 8.355469l-4.140625 8.8125-9.660157 1.214844c-5.652343.714843-10.253906 4.519531-12.011718 9.933593-1.761719 5.417969-.273438 11.203126 3.878906 15.097657zm34.308594-38.503906-6.851562 3.21875zm-21.398438 20.566406c4.96875-.625 9.210938-3.707031 11.339844-8.238281l3.746094-7.964844 3.742188 7.960938c2.132812 4.535156 6.371093 7.617187 11.34375 8.242187l8.730468 1.101563-6.417968 6.023437c-3.652344 3.425781-5.269532 8.410157-4.332032 13.332031l1.652344 8.644532-7.707031-4.242188c-2.195313-1.210937-4.605469-1.8125-7.011719-1.8125-2.410156 0-4.816406.601563-7.011719 1.8125l-7.710937 4.242188 1.652344-8.644532c.941406-4.921874-.679688-9.90625-4.332032-13.335937l-6.417968-6.019531zm0 0"/></svg>