<svg height="511pt" viewBox="1 -26 511.999 511" width="511pt" xmlns="http://www.w3.org/2000/svg"><path d="m467.714844 20.511719c-19.152344 0-35.5 12.222656-41.664063 29.277343h-41.921875l-30.136718 36.09375c-2.609376-.492187-5.300782-.757812-8.050782-.757812-5.222656 0-10.230468.9375-14.867187 2.644531-5.324219-17.742187-21.808594-30.710937-41.265625-30.710937-19.453125 0-35.9375 12.96875-41.265625 30.710937-4.632813-1.707031-9.644531-2.644531-14.863281-2.644531-4.914063 0-9.632813.839844-14.035157 2.363281l-39.234375-57.710937h-66.085937c-6.164063-17.054688-22.511719-29.277344-41.664063-29.277344-24.421875 0-44.289062 19.867188-44.289062 44.285156 0 24.421875 19.867187 44.285156 44.289062 44.285156 19.152344 0 35.5-12.222656 41.664063-29.277343h50.195312l31.871094 46.882812c-3.671875 6.339844-5.785156 13.6875-5.785156 21.523438v96.308593c-5.28125-2.054687-11.019531-3.183593-17.015625-3.183593-20.683594 0-38.28125 13.429687-44.5625 32.023437h-43.078125c-6.164063-17.054687-22.507813-29.28125-41.664063-29.28125-24.417968 0-44.285156 19.867188-44.285156 44.289063 0 24.417969 19.867188 44.285156 44.285156 44.285156 19.15625 0 35.5-12.222656 41.664063-29.277344h40.609375v82.316407l71.667968 93.039062h204.195313l42.726563-94.925781v-198.171875c0-23.75-19.324219-43.074219-43.074219-43.074219-4.605469 0-9.042969.726563-13.207031 2.070313-.710938-8.59375-3.964844-16.472657-8.992188-22.902344l18.292969-21.910156h27.882812c6.164063 17.054687 22.507813 29.277343 41.664063 29.277343 24.417968 0 44.285156-19.867187 44.285156-44.285156 0-24.421875-19.867188-44.285156-44.285156-44.285156zm-395.058594 38.542969c-7.867188 0-14.269531-6.398438-14.269531-14.269532 0-7.867187 6.402343-14.269531 14.269531-14.269531 7.871094 0 14.273438 6.402344 14.273438 14.269531 0 7.871094-6.402344 14.269532-14.273438 14.269532zm-28.371094 223.570312c-7.867187 0-14.269531-6.402344-14.269531-14.269531 0-7.871094 6.402344-14.273438 14.269531-14.273438 7.871094 0 14.273438 6.402344 14.273438 14.273438 0 7.867187-6.402344 14.269531-14.273438 14.269531zm344.730469-43.226562v-73.777344c0-7.199219 5.859375-13.058594 13.058594-13.058594s13.058593 5.855469 13.058593 13.058594v191.726562l-32.117187 71.355469h-170.019531l-56.421875-73.242187v-87.109376c0-9.378906 7.632812-17.015624 17.011719-17.015624 9.382812 0 17.015624 7.636718 17.015624 17.015624v62.121094h30.015626v-202.273437c0-7.199219 5.859374-13.058594 13.058593-13.058594s13.058594 5.859375 13.058594 13.058594v111.199219h30.015625v-139.261719c0-7.203125 5.859375-13.0625 13.058594-13.0625 7.199218 0 13.058594 5.859375 13.058594 13.0625v139.261719h30.015624v-111.199219c0-7.199219 5.855469-13.058594 13.054688-13.058594 7.203125 0 13.058594 5.859375 13.058594 13.058594v111.199219zm78.699219-160.332032c-7.867188 0-14.269532-6.398437-14.269532-14.269531 0-7.867187 6.398438-14.269531 14.269532-14.269531 7.867187 0 14.269531 6.402344 14.269531 14.269531 0 7.871094-6.402344 14.269531-14.269531 14.269531zm0 0"/></svg>