<svg height="448pt" viewBox="-48 0 448 448" width="448pt" xmlns="http://www.w3.org/2000/svg"><path d="m0 32h352v32h-352zm0 0"/><path d="m280.9375 448 46-368h-301.875l46 368zm-25.378906-312.992188c.550781-4.386718 4.546875-7.496093 8.933594-6.949218 4.386718.550781 7.496093 4.546875 6.949218 8.933594l-32 256c-.5 4.003906-3.902344 7.007812-7.9375 7.007812-.335937 0-.667968-.023438-1-.0625-4.382812-.550781-7.492187-4.546875-6.945312-8.929688zm-87.558594.992188c0-4.417969 3.582031-8 8-8s8 3.582031 8 8v256c0 4.417969-3.582031 8-8 8s-8-3.582031-8-8zm-80.496094-7.9375c4.386719-.550781 8.386719 2.558594 8.9375 6.945312l32 256c.546875 4.382813-2.5625 8.378907-6.945312 8.929688-.332032.039062-.664063.0625-1 .0625-4.035156 0-7.4375-3.003906-7.9375-7.007812l-32-256c-.546875-4.382813 2.5625-8.378907 6.945312-8.929688zm0 0"/><path d="m140.945312 0-8 16h86.109376l-8-16zm0 0"/></svg>